<?xml version="1.0" encoding="UTF-8"?><svg id="Ebene_1" xmlns="http://www.w3.org/2000/svg" width="202.48" height="196.3" viewBox="0 0 202.48 196.3"><defs><style>.cls-1{fill:#fac72e;}.cls-2{fill:#3699e6;}.cls-3{fill:#ebd3c1;}.cls-4{fill:#dae6f0;}.cls-5{fill:#f9b22b;}.cls-6{fill:#ddedf9;}.cls-7{fill:#45bee9;}.cls-8{fill:#e9f3f8;}.cls-9{fill:#5bcbf4;}.cls-10{fill:#c24947;}.cls-11{fill:#313989;}.cls-12{fill:#faa328;}.cls-13{fill:#2e439d;}.cls-14{fill:#3a70cb;}.cls-15{fill:#fbf9f3;}</style></defs><path class="cls-3" d="M26.54,177.73c2.58,3.01,5.06,8.76,10.07,8.76l139.54.08c5.49,0,8.27-5.34,10.93-9.02,7.51,1.53,16.69,3.92,15.25,7.66-1.53,3.97-17.01,6.7-26.24,7.65-41.9,4.31-83.6,4.43-125.65,1.15-30.19-2.36-55.01-9.38-23.9-16.27Z"/><path class="cls-1" d="M29.16,9.92c.02,1.07.2,2.8,1.29,3.77,9.58,8.45,13.89,17.77,19.81,17.24-.45,7.86-5.49,14.72-12.85,17.5.06-3.63-2.95-5.28-4.88-7.82-5.84-7.67-11.85-14.66-19.42-20.71,3.33-5.81,9.37-9.56,16.05-9.97Z"/><path class="cls-5" d="M37.41,48.43c-7.86,2.97-16.74.68-22.19-5.72s-6.3-15.53-2.12-22.82c7.58,6.05,13.58,13.04,19.42,20.71,1.94,2.54,4.95,4.2,4.88,7.82Z"/><path class="cls-5" d="M50.26,30.93c-5.93.53-10.23-8.79-19.81-17.24-1.1-.97-1.27-2.71-1.29-3.77,5.68-.35,11.24,1.75,15.27,5.76s6.16,9.56,5.83,15.25Z"/><rect class="cls-1" x="30.17" y="2.29" width="7.27" height="3.07" transform="translate(24.98 36.68) rotate(-81.42)"/><path class="cls-1" d="M48.9,54.37c-3.28-.21-5.85-3.69-6.31-7.23,3.06.62,5.54,3.19,6.31,7.23Z"/><path class="cls-1" d="M26.2,53.57c-.05,2.21-.74,5.83-2.94,5.39-1.4-1.14-.44-5.72.97-6.76.86-.63,2.02-.29,1.98,1.37Z"/><path class="cls-1" d="M9.09,39.48c.89,1.81-4.26,4.65-7.3,3.51,1.38-3.09,4.18-3.54,7.3-3.51Z"/><rect class="cls-1" x="56.23" y="27.86" width="3" height="6.08" transform="translate(26.65 88.53) rotate(-89.82)"/><path class="cls-1" d="M49.98,7.68c.6,1.02-2.08,6.09-5,5.53-.24-3.66,4.17-6.95,5-5.53Z"/><rect class="cls-1" x="9.64" y="48.75" width="7.01" height="2.65" transform="translate(-32.63 25.9) rotate(-47.45)"/><path class="cls-1" d="M7.8,24.26c-1.99,2.17-6.2,1.91-7.8-1.49,2.53-.4,4.65-.71,7.8,1.49Z"/><path class="cls-1" d="M59.09,20.87c-1.69,1.49-4.58,2.68-6.05,2.41-.94-1.78.22-2.84,1.87-3.18,1.24-.26,3.32-2,4.17.77Z"/><rect class="cls-1" x="7.55" y="9.86" width="2.53" height="7.98" transform="translate(-7.5 12.05) rotate(-51.22)"/><rect class="cls-1" x="51.53" y="38.97" width="3.05" height="6.76" transform="translate(-11.74 62.59) rotate(-55.95)"/><path class="cls-1" d="M18.77,9.12c-2.23,1.7-4.63-5-2.2-5.62,1.56-.4,3.73,4.45,2.2,5.62Z"/><path class="cls-11" d="M131.64,30.54c-.84.68-2.22,1.97-2.9,2.81l-18.89-15.08c-2.58-2.01-5.71-.38-7.87,1.32l-20.76,16.79c-10.29,4.15-17.8,12.9-26.24,19.94-7.25,6.05-15.61,10.84-22.88,17.98-1.49,1.47,3.03,5.78,5.06,5.04,2.82-1.02,4.16-3.11,6.43-4.16-1.23,1.88-1.82,4.42-4.06,6.77l17.51,13.22c6.26,4.72,14.28,6.8,22.23,5.92,4.79-.53,9.36-2.22,13.19-5.03,1.57-1.15,4.3-1.46,5.75-2.94l3.24-.68c5.21-1.1,10.81-1.72,16.03-.16,2.43.72,5.27,1.5,7.54,2.45,5.25,2.18,11.17,3.24,16.7,1.25l3.33-1.2c3.57-1.29,6.7-3.31,9.95-5.6.93-.09,1.56,1.93.87,2.68l-1.67,1.8c-9.76,6.65-21.6,8.07-32.82,3.11-8.88-3.93-18.14-3.26-26.5,1.73-7.85,4.68-16.31,7-25.99,5.22l11.11,8.56c3.95,3.04,7.88,6.23,12.09,9.02,1.16.77,3.11,1.9,4.03,2.81,4.19,4.2,10.26,8.58,13.52,6.1l10.79-8.18c1.25-.94,2.71-2.03,3.95-2.92l9.93-7.15c1.63-1.17,2.96-2.23,3.19-4.03,1.11-.09,2.36-.29,3.6-1.2l14.78-11.13,18.26-13.58-20.13-15.25c.19-.83.82-2.13.83-2.92l21.46,15.93c2.6-.76,4.8-2.15,6.05-5.31l-26.21-19.66.05-3.85,24.72,18.3c3.74,2.81,6.29,6.58,6.29,11.68l-.13,96.59c-2.66,3.69-5.45,9.03-10.93,9.02l-139.54-.08c-5.02,0-7.49-5.75-10.07-8.76l-.28-95.78c-.02-6.18,2.99-10.01,7.63-13.58L102.73,15.49c3.56-2.74,7.45-.89,10.5,1.4l18.4,13.64ZM30.26,157.27c3.92,4.39,11.1,9.44,17.92,9.25l23.51-17.2,26.25-19.72L29.67,78.53l.59,78.74ZM142.99,150.22l21.9,16.57c7.2-.6,14.15-4.18,18.45-9.63l.64-78.71-68.34,51.13,27.35,20.63ZM129.23,158.46c9.65,6.34,19.74,9.87,31.54,9.12l-47.5-35.9c-4.23,3-8.75,3.04-12.96-.1l-47.51,35.89c11.93,1.19,21.82-2.89,31.22-8.73,14.06-8.73,30.71-8.93,45.21-.3ZM176.61,183.16c8.01-3.73,9.13-11.19,6.69-20.47-17.35,12.17-37.57,10.19-54.94-.86-13.51-8.59-29.63-8.56-43.11,0-17.77,11.29-39.41,13.42-55.78-.55l.12,13.56c.02,2.82,4.23,8.18,7.91,8.18l139.11.13Z"/><path class="cls-8" d="M183.35,157.16c-1.56-2.58-.64-5.3-.89-8.68l-35.24-.09c-1.63,0-3.09.72-4.22,1.82l-27.35-20.63,68.34-51.13-.64,78.71Z"/><path class="cls-8" d="M71.68,149.32l-40.63-.88c-.38,3.54.65,5.96-.8,8.83l-.59-78.74,68.26,51.07-26.25,19.72Z"/><path class="cls-13" d="M176.61,183.16l-139.11-.13c-3.68,0-7.88-5.36-7.91-8.18l-.12-13.56c16.37,13.97,38.01,11.84,55.78.55,13.48-8.56,29.6-8.59,43.11,0,17.37,11.05,37.59,13.02,54.94.86,2.45,9.27,1.32,16.73-6.69,20.47Z"/><path class="cls-4" d="M129.23,158.46c-14.49-8.63-31.15-8.43-45.21.3-9.4,5.84-19.3,9.92-31.22,8.73l47.51-35.89c4.21,3.14,8.73,3.1,12.96.1l47.5,35.9c-11.8.75-21.89-2.78-31.54-9.12Z"/><path class="cls-2" d="M70.34,74.72c-.27,1.58.77,2.51,1.6,3.34,1.68,8.95,11.05,16.09,20.53,18-3.83,2.8-8.39,4.49-13.19,5.03.03-1.58-1.53-2.1-3.17-3.09l-8.71-5.25c-3.75-.44-7.17,1.69-10.35,2.43l-17.51-13.22c2.24-2.34,2.83-4.89,4.06-6.77l7.52-11.48c4.48,4.96,10.93-1.19,14.64,2.29,1.47,1.38-.14,6.01,1.73,8.22.56.66,1.93.8,2.85.51Z"/><path class="cls-7" d="M97.29,33.85c-.11.11-.24.61-.24,1.12-8.39,3.17-16.75,6.65-23.12,13.97,3.64.84,6.06-1.83,8.99-2.39,4.78-.92,8.98-.14,12.54,2.61s5.3,7.02,4.74,11.54l-5.5-4.09c-8.3-2.67-16.17,1.89-20.48,8.35-1.99,2.98-3.79,6-3.87,9.76-.92.29-2.29.15-2.85-.51-1.88-2.21-.26-6.84-1.73-8.22-3.71-3.47-10.17,2.67-14.64-2.29,1.45-2.21,3.1-4.63,3.86-7.38,8.44-7.05,15.95-15.8,26.24-19.94,4.99-2.01,10.88-1.92,16.07-2.53Z"/><path class="cls-7" d="M106.74,68.06c-3.57,8.04-7.03,16.3-8.52,25.06-1.45,1.48-4.18,1.79-5.75,2.94-9.48-1.91-18.85-9.05-20.53-18,1.68-1.24,3.13-2.52,4.36-4.15,5.19-6.83,13.39-10.02,21.83-7.99l8.6,2.13Z"/><path class="cls-9" d="M154.21,93.65l1.69,1.95-14.78,11.13c-1.23.91-2.49,1.11-3.6,1.2-6.79.53-13.32-.86-20.05-3.29-12.94-4.66-22.81,7.78-37.46,7.63l-11.11-8.56c9.68,1.77,18.14-.54,25.99-5.22,8.36-4.99,17.62-5.66,26.5-1.73,11.21,4.96,23.06,3.54,32.82-3.11Z"/><path class="cls-14" d="M137.52,107.94c-.23,1.8-1.57,2.86-3.19,4.03l-9.93,7.15c-8.75-4.25-18.14-4.96-26.71.25-1.71,1.04-3.82,1.5-5.58,1.94-4.21-2.79-8.14-5.97-12.09-9.02,14.65.15,24.52-12.29,37.46-7.63,6.72,2.42,13.26,3.82,20.05,3.29Z"/><path class="cls-4" d="M71.68,149.32l-23.51,17.2c-6.82.18-14-4.86-17.92-9.25,1.45-2.87.41-5.29.8-8.83l40.63.88Z"/><path class="cls-4" d="M183.35,157.16c-4.3,5.45-11.25,9.02-18.45,9.63l-21.9-16.57c1.13-1.1,2.58-1.83,4.22-1.82l35.24.09c.26,3.38-.67,6.1.89,8.68Z"/><path class="cls-7" d="M155.9,95.61l-1.69-1.95,1.67-1.8c.7-.75.07-2.77-.87-2.68-3.25,2.29-6.39,4.31-9.95,5.6,3.79-9.11,6.82-18.39,8.97-27.99l20.13,15.25-18.26,13.58Z"/><path class="cls-4" d="M128.74,33.35c-1.43,1.79-3.19,4.36-5.14,5.89l-16.31-13.01c-3.55,1.41-6.43,3.73-7.94,6.49-.76.06-1.61.68-2.07,1.13-5.19.6-11.08.52-16.07,2.53l20.76-16.79c2.16-1.7,5.29-3.33,7.87-1.32l18.89,15.08Z"/><path class="cls-4" d="M154.86,63.86c.06-2.99,1.27-6.1,1.3-9.04l26.21,19.66c-1.25,3.16-3.45,4.56-6.05,5.31l-21.46-15.93Z"/><path class="cls-2" d="M120.45,122.04l-10.79,8.18c-3.27,2.48-9.33-1.91-13.52-6.1,7.08-5.24,16.82-6.97,24.31-2.08Z"/><path class="cls-4" d="M51.12,63.7l-7.52,11.48c-2.27,1.05-3.62,3.14-6.43,4.16-2.03.74-6.55-3.58-5.06-5.04,7.27-7.14,15.64-11.93,22.88-17.98-.76,2.75-2.41,5.17-3.86,7.38Z"/><path class="cls-9" d="M124.4,119.11c-1.24.89-2.7,1.98-3.95,2.92-7.49-4.89-17.23-3.16-24.31,2.08-.92-.92-2.87-2.04-4.03-2.81,1.76-.44,3.86-.9,5.58-1.94,8.58-5.2,17.96-4.5,26.71-.25Z"/><path class="cls-14" d="M79.28,101.08c-7.95.88-15.97-1.19-22.23-5.92,3.18-.73,6.61-2.87,10.35-2.43l8.71,5.25c1.64.99,3.2,1.51,3.17,3.09Z"/><path class="cls-6" d="M99.36,32.71c4.09-.3,9.48-.79,13.23,1.88l9.48,6.82c-5.84,8.46-11.16,17.25-15.33,26.64l-8.6-2.13c-8.45-2.03-16.64,1.16-21.83,7.99-1.24,1.62-2.68,2.91-4.36,4.15-.83-.83-1.87-1.76-1.6-3.34.07-3.76,1.87-6.77,3.87-9.76,8.81-3.22,15.72-7.26,25.12-1.69.74-1.05.77-1.86.86-2.57.57-4.53-1.33-8.91-4.74-11.54s-7.76-3.54-12.54-2.61c-2.93.57-5.35,3.23-8.99,2.39,6.37-7.32,14.74-10.79,23.12-13.97,0-.5.13-1.01.24-1.12.46-.45,1.31-1.08,2.07-1.13Z"/><path class="cls-13" d="M123.6,39.24c-.54.42-1.15,1.62-1.54,2.18l-9.48-6.82c-3.75-2.68-9.14-2.18-13.23-1.88,1.51-2.75,4.39-5.08,7.94-6.49l16.31,13.01Z"/><path class="cls-4" d="M100.19,60.7c-.09.71-.13,1.53-.86,2.57-9.4-5.58-16.3-1.53-25.12,1.69,4.31-6.45,12.18-11.02,20.48-8.35l5.5,4.09Z"/><path class="cls-10" d="M156.21,50.97l-.05,3.85c-.03,2.94-1.25,6.05-1.3,9.04-.02.79-.64,2.09-.83,2.92-2.15,9.6-5.17,18.88-8.97,27.99l-3.33,1.2c5.51-12.76,9.78-26.17,11.13-39.97.91-9.31,1.56-19.01-1.31-28-.66-2.07-.4-4.33-2.2-6.76l-6.08,3.72c-12.18,7.45-20.52,19.44-27.6,31.6-6.44,11.06-11.52,23.19-14.21,35.89l-3.24.68c1.49-8.76,4.96-17.02,8.52-25.06,4.17-9.4,9.49-18.18,15.33-26.64.39-.56,1-1.76,1.54-2.18,1.95-1.52,3.71-4.1,5.14-5.89.67-.84,2.06-2.13,2.9-2.81,5.98-4.88,11.68-10.46,19.72-13.27,4.97,11.03,4.98,22.52,4.85,33.7Z"/><path class="cls-12" d="M152.87,55.99c-1.35,13.8-5.62,27.22-11.13,39.97-5.54,2-11.45.94-16.7-1.25l14.51-37.79c5.89,2.72,8.47-1.65,13.33-.93Z"/><path class="cls-15" d="M151.55,27.99l-12.01,28.94-14.51,37.79c-2.28-.95-5.11-1.73-7.54-2.45l10.47-26.89c.67-1.71.64-3.4.38-4.8.62-.1,1.67-.58,2.06-1.58l12.87-34.05,6.08-3.72c1.8,2.43,1.54,4.69,2.2,6.76Z"/><path class="cls-12" d="M128.34,60.58c.25,1.4.29,3.09-.38,4.8l-10.47,26.89c-5.23-1.55-10.82-.93-16.03.16,2.69-12.7,7.77-24.83,14.21-35.89,4.08,4.14,9.15,1.09,12.67,4.03Z"/><path class="cls-5" d="M128.34,60.58c-3.53-2.94-8.59.11-12.67-4.03,7.08-12.16,15.42-24.14,27.6-31.6l-12.87,34.05c-.38,1-1.43,1.48-2.06,1.58Z"/><path class="cls-5" d="M152.87,55.99c-4.86-.72-7.44,3.65-13.33.93l12.01-28.94c2.87,8.99,2.22,18.7,1.31,28Z"/></svg>